<?xml version="1.0" encoding="UTF-8" standalone="no"?>
<svg
   width="370.89639pt"
   height="527.96429pt"
   version="1.1"
   viewBox="0 0 370.89639 527.96429"
   id="svg336"
   sodipodi:docname="noun-download-csv-632140.svg"
   inkscape:version="1.2.1 (9c6d41e4, 2022-07-14)"
   xmlns:inkscape="http://www.inkscape.org/namespaces/inkscape"
   xmlns:sodipodi="http://sodipodi.sourceforge.net/DTD/sodipodi-0.dtd"
   xmlns="http://www.w3.org/2000/svg"
   xmlns:svg="http://www.w3.org/2000/svg">
  <sodipodi:namedview
     id="namedview338"
     pagecolor="#ffffff"
     bordercolor="#666666"
     borderopacity="1.0"
     inkscape:showpageshadow="2"
     inkscape:pageopacity="0.0"
     inkscape:pagecheckerboard="true"
     inkscape:deskcolor="#d1d1d1"
     inkscape:document-units="pt"
     showgrid="false"
     inkscape:zoom="0.89759442"
     inkscape:cx="207.22054"
     inkscape:cy="432.2665"
     inkscape:window-width="2153"
     inkscape:window-height="1202"
     inkscape:window-x="2856"
     inkscape:window-y="490"
     inkscape:window-maximized="0"
     inkscape:current-layer="g334" />
  <defs
     id="defs248">
    <symbol
       id="v"
       overflow="visible">
      <path
         d="M 9.625,-0.57812 C 9.125,-0.3164 8.6016,-0.125 8.0625,0 7.53125,0.13281 6.9727,0.20312 6.3906,0.20312 c -1.75,0 -3.1367,-0.48438 -4.1562,-1.4531 -1.0117,-0.97656 -1.5156,-2.3008 -1.5156,-3.9688 0,-1.6758 0.50391,-3 1.5156,-3.9688 1.0195,-0.97656 2.4062,-1.4688 4.1562,-1.4688 0.58203,0 1.1406,0.07031 1.6719,0.20312 0.53906,0.125 1.0625,0.32031 1.5625,0.57812 v 2.1562 c -0.5,-0.33203 -0.99609,-0.57812 -1.4844,-0.73438 -0.49219,-0.16406 -1,-0.25 -1.5312,-0.25 -0.96875,0 -1.7305,0.3125 -2.2812,0.9375 -0.55469,0.61719 -0.82812,1.4648 -0.82812,2.5469 0,1.0742 0.27344,1.9219 0.82812,2.5469 0.55078,0.61719 1.3125,0.92188 2.2812,0.92188 0.53125,0 1.0391,-0.078125 1.5312,-0.23438 0.48828,-0.16406 0.98438,-0.41406 1.4844,-0.75 z"
         id="path182" />
    </symbol>
    <symbol
       id="c"
       overflow="visible">
      <path
         d="M 7.0469,-5.7188 C 6.81643,-5.82036 6.59378,-5.89458 6.37502,-5.93755 6.16408,-5.988331 5.95314,-6.015675 5.7344,-6.015675 c -0.64844,0 -1.1484,0.21094 -1.5,0.625 -0.34375,0.40625 -0.51562,0.99609 -0.51562,1.7656 v 3.625 h -2.5156 v -7.8594 h 2.5156 v 1.2969 c 0.32031,-0.50781 0.69141,-0.88281 1.1094,-1.125 0.41406,-0.23828 0.91406,-0.35938 1.5,-0.35938 0.082031,0 0.17188,0.00781 0.26562,0.015625 0.10156,0.011719 0.25,0.027344 0.4375,0.046875 z"
         id="path185" />
    </symbol>
    <symbol
       id="a"
       overflow="visible">
      <path
         d="m 9.0469,-3.9531 v 0.71875 h -5.875 c 0.0625,0.59375 0.27344,1.0391 0.64062,1.3281 0.36328,0.29297 0.875,0.4375 1.5312,0.4375 0.53125,0 1.0703,-0.078125 1.625,-0.23438 0.55078,-0.15625 1.1172,-0.39062 1.7031,-0.70312 v 1.9219 c -0.59375,0.23047 -1.1875,0.40234 -1.7812,0.51562 -0.59375,0.11328 -1.1875,0.17188 -1.7812,0.17188 -1.418,0 -2.5234,-0.35938 -3.3125,-1.0781 -0.79297,-0.72656 -1.1875,-1.7422 -1.1875,-3.0469 0,-1.2812 0.38281,-2.2852 1.1562,-3.0156 0.78125,-0.73828 1.8477,-1.1094 3.2031,-1.1094 1.2383,0 2.2266,0.375 2.9688,1.125 0.73828,0.74219 1.1094,1.7305 1.1094,2.9688 z M 6.4688,-4.78122 c 0,-0.47656 -0.14062,-0.86328 -0.42188,-1.1562 -0.28125,-0.28906 -0.64844,-0.4375 -1.0938,-0.4375 -0.48047,0 -0.875,0.14062 -1.1875,0.42188 -0.30469,0.27344 -0.49219,0.66406 -0.5625,1.1719 z"
         id="path188" />
    </symbol>
    <symbol
       id="k"
       overflow="visible">
      <path
         d="m 4.7188,-3.5312 c -0.52344,0 -0.91797,0.089844 -1.1875,0.26562 -0.26172,0.17969 -0.39062,0.4375 -0.39062,0.78125 0,0.32422 0.10156,0.57422 0.3125,0.75 0.21875,0.17969 0.51953,0.26562 0.90625,0.26562 0.46875,0 0.86328,-0.16406 1.1875,-0.5 0.32031,-0.34375 0.48438,-0.76953 0.48438,-1.2812 V -3.53116 Z M 8.5626,-4.48432 V 8e-5 H 6.0314 v -1.1562 C 5.69546,-0.68737 5.31656,-0.34362 4.8908,-0.12492 4.47283,0.09383 3.96111,0.2032 3.3596,0.2032 c -0.8125,0 -1.4766,-0.23438 -1.9844,-0.70312 -0.51172,-0.47656 -0.76562,-1.0977 -0.76562,-1.8594 0,-0.91406 0.31641,-1.5859 0.95312,-2.0156 0.63281,-0.4375 1.6289,-0.65625 2.9844,-0.65625 h 1.4844 v -0.1875 c 0,-0.39453 -0.15625,-0.6875 -0.46875,-0.875 -0.3125,-0.1875 -0.80469,-0.28125 -1.4688,-0.28125 -0.54297,0 -1.043,0.058594 -1.5,0.17188 -0.46094,0.10547 -0.89062,0.26172 -1.2969,0.46875 v -1.9062 c 0.53906,-0.13281 1.082,-0.23438 1.625,-0.29688 0.53906,-0.070312 1.082,-0.10938 1.625,-0.10938 1.4141,0 2.4375,0.28125 3.0625,0.84375 0.63281,0.5625 0.95312,1.4688 0.95312,2.7188 z"
         id="path191" />
    </symbol>
    <symbol
       id="b"
       overflow="visible">
      <path
         d="m 3.9531,-10.078 v 2.2188 h 2.5781 v 1.7969 H 3.9531 v 3.3281 c 0,0.36719 0.066406,0.61719 0.20312,0.75 0.14453,0.125 0.4375,0.1875 0.875,0.1875 h 1.2812 V 2e-4 h -2.1406 c -1,0 -1.7109,-0.20312 -2.125,-0.60938 -0.40625,-0.41406 -0.60938,-1.125 -0.60938,-2.125 v -3.3281 h -1.25 v -1.7969 h 1.25 v -2.2188 z"
         id="path194" />
    </symbol>
    <symbol
       id="f"
       overflow="visible">
      <path
         d="m 6.5469,-6.7031 v -4.2031 H 9.0781 V -2e-4 H 6.5469 V -1.1408 C 6.20315,-0.67205 5.82034,-0.3283 5.4063,-0.1096 4.98833,0.09743 4.50786,0.2029 3.9688,0.2029 c -0.96875,0 -1.7656,-0.38281 -2.3906,-1.1562 -0.625,-0.76953 -0.9375,-1.7578 -0.9375,-2.9688 0,-1.207 0.3125,-2.1953 0.9375,-2.9688 0.625,-0.76953 1.4219,-1.1562 2.3906,-1.1562 0.53906,0 1.0195,0.10938 1.4375,0.32812 0.41406,0.21875 0.79688,0.55859 1.1406,1.0156 z M 4.8907,-1.625 c 0.53906,0 0.95312,-0.19141 1.2344,-0.57812 0.28125,-0.39453 0.42188,-0.96875 0.42188,-1.7188 0,-0.75005 -0.14062,-1.3164 -0.42188,-1.7031 -0.28125,-0.39453 -0.69531,-0.59375 -1.2344,-0.59375 -0.53125,0 -0.9375,0.19922 -1.2188,0.59375 -0.28125,0.38672 -0.42188,0.95312 -0.42188,1.7031 0,0.74998 0.14062,1.3242 0.42188,1.7188 0.28125,0.38672 0.6875,0.57812 1.2188,0.57812 z"
         id="path197" />
    </symbol>
    <symbol
       id="j"
       overflow="visible">
      <path
         d="m 5.3906,-1.625 c 0.53125,0 0.9375,-0.19141 1.2188,-0.57812 0.28906,-0.39453 0.4375,-0.96875 0.4375,-1.7188 0,-0.75005 -0.14844,-1.3164 -0.4375,-1.7031 -0.28125,-0.39453 -0.6875,-0.59375 -1.2188,-0.59375 -0.54297,0 -0.96094,0.19922 -1.25,0.59375 -0.28125,0.39844 -0.42188,0.96484 -0.42188,1.7031 0,0.75 0.14062,1.3242 0.42188,1.7188 0.28906,0.38672 0.70703,0.57812 1.25,0.57812 z M 3.7187,-6.7031 c 0.34375,-0.45703 0.72266,-0.79688 1.1406,-1.0156 0.42578,-0.21875 0.91016,-0.32812 1.4531,-0.32812 0.96875,0 1.7656,0.38672 2.3906,1.1562 0.625,0.77344 0.9375,1.7617 0.9375,2.9688 0,1.2109 -0.3125,2.1992 -0.9375,2.9688 -0.625,0.77344 -1.4219,1.1562 -2.3906,1.1562 -0.54297,0 -1.0273,-0.10938 -1.4531,-0.32812 C 4.44133,-0.34369 4.06242,-0.67963 3.7187,-1.14054 V 6e-5 H 1.2031 v -10.906 h 2.5156 z"
         id="path200" />
    </symbol>
    <symbol
       id="i"
       overflow="visible">
      <path
         d="m 0.17188,-7.8594 h 2.5156 l 2.1094,5.3281 1.7969,-5.3281 h 2.5 L 5.79688,0.75 C 5.46094,1.61328 5.07032,2.2188 4.62498,2.5625 4.18748,2.91406 3.60938,3.09375 2.89058,3.09375 h -1.4531 v -1.6406 h 0.78125 c 0.42578,0 0.73438,-0.070313 0.92188,-0.20312 C 3.33592,1.11331 3.49217,0.86722 3.60936,0.51565 L 3.67186,0.2969 Z"
         id="path203" />
    </symbol>
    <symbol
       id="e"
       overflow="visible">
      <path
         d="m 7.5469,-7.6094 v 2.0469 C 7.21096,-5.78906 6.87502,-5.96094 6.5313,-6.07812 6.18755,-6.1914 5.82818,-6.25 5.4532,-6.25 c -0.69922,0 -1.2461,0.21094 -1.6406,0.625 -0.38672,0.40625 -0.57812,0.97656 -0.57812,1.7031 0,0.74219 0.19141,1.3125 0.57812,1.7188 0.39453,0.40625 0.94141,0.60938 1.6406,0.60938 0.39453,0 0.76953,-0.054688 1.125,-0.17188 0.35156,-0.11328 0.67578,-0.28516 0.96875,-0.51562 v 2.0469 C 7.16023,-0.08588 6.7657,0.01959 6.35945,0.0938 5.9532,0.164112 5.54695,0.20318 5.14065,0.20318 c -1.418,0 -2.5273,-0.36328 -3.3281,-1.0938 -0.80469,-0.72656 -1.2031,-1.7383 -1.2031,-3.0312 0,-1.2891 0.39844,-2.3008 1.2031,-3.0312 0.80078,-0.72656 1.9102,-1.0938 3.3281,-1.0938 0.40625,0 0.80469,0.039063 1.2031,0.10938 0.40625,0.074219 0.80469,0.18359 1.2031,0.32812 z"
         id="path206" />
    </symbol>
    <symbol
       id="d"
       overflow="visible">
      <path
         d="m 4.9375,-6.25 c -0.55469,0 -0.97656,0.20312 -1.2656,0.60938 -0.29297,0.39844 -0.4375,0.96875 -0.4375,1.7188 0,0.75005 0.14453,1.3281 0.4375,1.7344 0.28906,0.39844 0.71094,0.59375 1.2656,0.59375 0.55078,0 0.96875,-0.19531 1.25,-0.59375 0.28906,-0.40625 0.4375,-0.98438 0.4375,-1.7344 0,-0.75002 -0.14844,-1.3203 -0.4375,-1.7188 C 5.90625,-6.04687 5.48828,-6.25 4.9375,-6.25 Z m 0,-1.7969 c 1.3516,0 2.4102,0.36719 3.1719,1.0938 0.75781,0.73047 1.1406,1.7422 1.1406,3.0312 0,1.293 -0.38281,2.3047 -1.1406,3.0312 C 7.34768,-0.16023 6.2891,0.2031 4.9375,0.2031 3.582,0.2031 2.5195,-0.16018 1.75,-0.8907 0.98828,-1.61726 0.6094,-2.629 0.6094,-3.9219 c 0,-1.2891 0.37891,-2.3008 1.1406,-3.0312 0.76953,-0.72656 1.832,-1.0938 3.1875,-1.0938 z"
         id="path209" />
    </symbol>
    <symbol
       id="u"
       overflow="visible">
      <path
         d="m 3.7188,-1.1406 v 4.125 H 1.2032 v -10.844 h 2.5156 v 1.1562 c 0.34375,-0.45703 0.72266,-0.79688 1.1406,-1.0156 0.42578,-0.21875 0.91016,-0.32812 1.4531,-0.32812 0.96875,0 1.7656,0.38672 2.3906,1.1562 0.625,0.77344 0.9375,1.7617 0.9375,2.9688 0,1.2109 -0.3125,2.1992 -0.9375,2.9688 -0.625,0.77344 -1.4219,1.1562 -2.3906,1.1562 -0.54297,0 -1.0273,-0.10938 -1.4531,-0.32812 -0.41797,-0.21875 -0.79688,-0.55469 -1.1406,-1.0156 z m 1.6719,-5.0781 c -0.54297,0 -0.96094,0.19922 -1.25,0.59375 -0.28125,0.39844 -0.42188,0.96484 -0.42188,1.7031 0,0.75 0.14062,1.3242 0.42188,1.7188 0.28906,0.38672 0.70703,0.57812 1.25,0.57812 0.53125,0 0.9375,-0.19141 1.2188,-0.57812 0.28906,-0.39453 0.4375,-0.96875 0.4375,-1.7188 0,-0.75005 -0.14844,-1.3164 -0.4375,-1.7031 C 6.32825,-6.01948 5.922,-6.2187 5.3907,-6.2187 Z"
         id="path212" />
    </symbol>
    <symbol
       id="h"
       overflow="visible">
      <path
         d="m 1.125,-3.0625 v -4.7969 h 2.5156 v 0.79688 c 0,0.42969 -0.00781,0.96484 -0.015625,1.6094 v 1.2812 c 0,0.625 0.015625,1.0781 0.046875,1.3594 0.039063,0.28125 0.097656,0.48438 0.17188,0.60938 0.10156,0.15625 0.23828,0.28125 0.40625,0.375 0.16406,0.085937 0.35938,0.125 0.57812,0.125 0.51953,0 0.92578,-0.19531 1.2188,-0.59375 0.30078,-0.40625 0.45312,-0.96094 0.45312,-1.6719 v -3.8906 h 2.5156 V 10e-6 h -2.5156 v -1.1406 c -0.375,0.46094 -0.77734,0.79688 -1.2031,1.0156 -0.41797,0.21875 -0.88281,0.32812 -1.3906,0.32812 -0.90625,0 -1.6016,-0.27344 -2.0781,-0.82812 -0.46875,-0.5625 -0.70312,-1.375 -0.70312,-2.4375 z"
         id="path215" />
    </symbol>
    <symbol
       id="t"
       overflow="visible">
      <path
         d="m 7.3438,-7.6094 v 1.9062 c -0.54297,-0.21875 -1.0625,-0.38281 -1.5625,-0.5 -0.5,-0.11328 -0.96875,-0.17188 -1.4062,-0.17188 -0.48047,0 -0.83984,0.0625 -1.0781,0.1875 -0.23047,0.11719 -0.34375,0.29688 -0.34375,0.54688 0,0.19922 0.085937,0.35547 0.26562,0.46875 0.17578,0.10547 0.49219,0.18359 0.95312,0.23438 l 0.4375,0.0625 c 1.2812,0.15625 2.1406,0.42188 2.5781,0.79688 0.44531,0.375 0.67188,0.96484 0.67188,1.7656 0,0.83594 -0.30859,1.4648 -0.92188,1.8906 -0.61719,0.41797 -1.5391,0.625 -2.7656,0.625 -0.51172,0 -1.0469,-0.042969 -1.6094,-0.125 -0.55469,-0.082031 -1.1211,-0.20312 -1.7031,-0.35938 v -1.9062 c 0.5,0.24219 1.0078,0.42188 1.5312,0.54688 0.53125,0.11719 1.0664,0.17188 1.6094,0.17188 0.48828,0 0.85938,-0.066406 1.1094,-0.20312 0.25,-0.13281 0.375,-0.33203 0.375,-0.59375 0,-0.22656 -0.089844,-0.39453 -0.26562,-0.5 C 5.0509,-2.87896 4.71106,-2.9688 4.20327,-3.0313 l -0.4375,-0.046875 c -1.1172,-0.14453 -1.8984,-0.40625 -2.3438,-0.78125 -0.44922,-0.38281 -0.67188,-0.96094 -0.67188,-1.7344 0,-0.83203 0.28125,-1.4453 0.84375,-1.8438 0.57031,-0.40625 1.4453,-0.60938 2.625,-0.60938 0.46875,0 0.95312,0.039063 1.4531,0.10938 0.50781,0.074219 1.0664,0.18359 1.6719,0.32812 z"
         id="path218" />
    </symbol>
    <symbol
       id="s"
       overflow="visible">
      <path
         d="M 1.2031,-10.906 H 3.7187 V 0 H 1.2031 Z"
         id="path221" />
    </symbol>
    <symbol
       id="g"
       overflow="visible">
      <path
         d="M 1.2031,-7.8594 H 3.7187 V 0 H 1.2031 Z m 0,-3.0469 h 2.5156 v 2.0469 H 1.2031 Z"
         id="path224" />
    </symbol>
    <symbol
       id="r"
       overflow="visible">
      <path
         d="m 6.375,-10.906 v 1.6406 H 4.9844 c -0.35547,0 -0.60547,0.070313 -0.75,0.20312 -0.13672,0.125 -0.20312,0.34375 -0.20312,0.65625 v 0.54688 h 2.1406 v 1.7969 h -2.1406 v 6.0625 h -2.5156 v -6.0625 h -1.2344 v -1.7969 h 1.2344 v -0.54688 c 0,-0.85156 0.23828,-1.4844 0.71875,-1.8906 0.47656,-0.40625 1.2188,-0.60938 2.2188,-0.60938 z"
         id="path227" />
    </symbol>
    <symbol
       id="q"
       overflow="visible">
      <path
         d="m 8.4844,-6.5469 c 0.3125,-0.48828 0.6875,-0.85938 1.125,-1.1094 0.4375,-0.25781 0.92188,-0.39062 1.4531,-0.39062 0.89453,0 1.5781,0.28125 2.0469,0.84375 0.47656,0.55469 0.71875,1.3594 0.71875,2.4219 V -7e-5 h -2.5312 v -4.0938 c 0.0078,-0.0625 0.01563,-0.125 0.01563,-0.1875 v -0.28125 c 0,-0.5625 -0.08594,-0.96875 -0.25,-1.2188 -0.15625,-0.25 -0.41797,-0.375 -0.78125,-0.375 -0.48047,0 -0.85156,0.19922 -1.1094,0.59375 -0.26172,0.39844 -0.39844,0.96484 -0.40625,1.7031 v 3.8594 h -2.5156 v -4.0938 c 0,-0.875 -0.078125,-1.4375 -0.23438,-1.6875 -0.14844,-0.25 -0.41406,-0.375 -0.79688,-0.375 -0.48047,0 -0.85156,0.19922 -1.1094,0.59375 -0.26172,0.39844 -0.39062,0.96484 -0.39062,1.7031 v 3.8594 h -2.5312 v -7.8594 h 2.5312 v 1.1562 c 0.30078,-0.44531 0.64844,-0.78125 1.0469,-1 0.40625,-0.22656 0.84766,-0.34375 1.3281,-0.34375 0.53906,0 1.0195,0.13672 1.4375,0.40625 0.41406,0.26172 0.73438,0.625 0.95312,1.0938 z"
         id="path230" />
    </symbol>
    <symbol
       id="p"
       overflow="visible">
      <path
         d="M 9.0938,-4.7812 V 0 H 6.5782 v -3.6406 c 0,-0.6875 -0.015625,-1.1602 -0.046875,-1.4219 -0.03125,-0.25781 -0.085938,-0.44531 -0.15625,-0.5625 -0.10547,-0.16406 -0.24219,-0.29688 -0.40625,-0.39062 -0.16797,-0.09375 -0.35547,-0.14062 -0.5625,-0.14062 -0.53125,0 -0.94922,0.20312 -1.25,0.60938 -0.29297,0.40625 -0.4375,0.96875 -0.4375,1.6875 V 4e-5 h -2.5156 v -10.906 h 2.5156 v 4.2031 c 0.375,-0.45703 0.77344,-0.79688 1.2031,-1.0156 0.42578,-0.21875 0.89453,-0.32812 1.4062,-0.32812 0.90625,0 1.5938,0.28125 2.0625,0.84375 0.46875,0.55469 0.70312,1.3594 0.70312,2.4219 z"
         id="path233" />
    </symbol>
    <symbol
       id="o"
       overflow="visible">
      <path
         d="m 1.3125,-10.469 h 3.0156 l 3.8125,7.1875 v -7.1875 h 2.5625 V 0 H 7.6875 L 3.875,-7.1875 V 0 H 1.3125 Z"
         id="path236" />
    </symbol>
    <symbol
       id="n"
       overflow="visible">
      <path
         d="M 9.0938,-4.7812 V 0 H 6.5782 v -3.6562 c 0,-0.67578 -0.015625,-1.1445 -0.046875,-1.4062 -0.03125,-0.25781 -0.085938,-0.44531 -0.15625,-0.5625 -0.10547,-0.16406 -0.24219,-0.29688 -0.40625,-0.39062 -0.16797,-0.09375 -0.35547,-0.14062 -0.5625,-0.14062 -0.53125,0 -0.94922,0.20312 -1.25,0.60938 -0.29297,0.40625 -0.4375,0.96875 -0.4375,1.6875 v 3.8594 h -2.5156 v -7.8594 h 2.5156 v 1.1562 c 0.375,-0.45703 0.77344,-0.79688 1.2031,-1.0156 0.42578,-0.21875 0.89453,-0.32812 1.4062,-0.32812 0.90625,0 1.5938,0.28125 2.0625,0.84375 0.46875,0.55469 0.70312,1.3594 0.70312,2.4219 z"
         id="path239" />
    </symbol>
    <symbol
       id="m"
       overflow="visible">
      <path
         d="m 1.3125,-10.469 h 4.4844 c 1.332,0 2.3516,0.29688 3.0625,0.89062 0.71875,0.59375 1.0781,1.4375 1.0781,2.5312 0,1.0937 -0.35938,1.9375 -1.0781,2.5312 -0.71094,0.59375 -1.7305,0.89062 -3.0625,0.89062 H 4.0157 v 3.625 H 1.3126 Z m 2.7031,1.9531 v 2.9219 h 1.5 c 0.51953,0 0.92188,-0.125 1.2031,-0.375 0.28906,-0.25781 0.4375,-0.61719 0.4375,-1.0781 0,-0.46875 -0.14844,-0.82812 -0.4375,-1.0781 C 6.43745,-8.38301 6.03511,-8.51582 5.5156,-8.51582 Z"
         id="path242" />
    </symbol>
    <symbol
       id="l"
       overflow="visible">
      <path
         d="m 1.2031,-7.8594 h 2.5156 v 7.7188 c 0,1.0508 -0.25781,1.8516 -0.76562,2.4062 -0.5,0.55078 -1.2305,0.82812 -2.1875,0.82812 h -1.25 v -1.6406 h 0.4375 c 0.47656,0 0.80469,-0.10938 0.98438,-0.32812 0.17578,-0.21094 0.26562,-0.63281 0.26562,-1.2656 z m 0,-3.0469 h 2.5156 v 2.0469 H 1.2031 Z"
         id="path245" />
    </symbol>
  </defs>
  <g
     id="g334"
     transform="translate(-180.9896,-17.2127)">
    <path
       d="m 391.4,449.97 v -78.805 h -49.695 v 78.805 h -54.891 l 80.676,95.207 80.676,-95.207 z"
       id="path250" />
    <path
       d="m 525.74,172.65 v -42.344 c 0,-2.2188 -0.92969,-4.4727 -2.4883,-6.0547 l -103.16,-104.48 c -1.3438,-1.6797 -4.0625,-2.5586 -6.1289,-2.5586 h -197.29 c -4.7578,0 -8.6172,3.8555 -8.6172,8.6172 v 146.82 h -27.066 v 171.07 h 27.066 v 72.461 c 0,4.7617 3.8555,8.6172 8.6172,8.6172 h 110.66 v -17.23 l -102.05,-0.004 v -63.848 h 283.21 v 63.848 h -102.75 v 17.23 h 111.37 c 4.7578,0 8.6172,-3.8555 8.6172,-8.6172 v -72.461 h 26.156 v -171.07 z M 422.58,46.81 496.494,121.697 H 422.58 Z m -117.1,236.32 c 5.2852,0 11.141,-1.1484 14.59,-2.5273 l 2.6406,13.668 c -3.2148,1.6094 -10.449,3.332 -19.867,3.332 -26.762,0 -40.543,-16.652 -40.543,-38.707 0,-26.418 18.836,-41.117 42.266,-41.117 9.0742,0 15.965,1.8398 19.066,3.4453 l -3.5625,13.898 c -3.5625,-1.4922 -8.5,-2.8711 -14.699,-2.8711 -13.898,0 -24.695,8.3867 -24.695,25.613 0,15.5 9.1875,25.266 24.805,25.266 z m 53.418,14.469 c -8.8438,0 -17.574,-2.3008 -21.938,-4.7109 l 3.5625,-14.473 c 4.7109,2.4141 11.945,4.8203 19.41,4.8203 8.043,0 12.289,-3.3281 12.289,-8.3828 0,-4.8242 -3.6758,-7.582 -12.98,-10.91 -12.863,-4.4805 -21.25,-11.602 -21.25,-22.855 0,-13.207 11.023,-23.316 29.289,-23.316 8.7266,0 15.16,1.8398 19.754,3.9062 l -3.9023,14.125 c -3.1016,-1.4922 -8.6172,-3.6758 -16.195,-3.6758 -7.582,0 -11.254,3.4453 -11.254,7.4648 0,4.9414 4.3633,7.1211 14.355,10.914 13.668,5.0508 20.102,12.172 20.102,23.086 0,12.98 -9.9922,24.008 -31.242,24.008 z m 87.527,-1.1484 h -20.441 l -24.809,-77.41 h 19.18 l 9.418,32.734 c 2.6406,9.1914 5.0547,18.031 6.8906,27.68 h 0.34375 c 1.9531,-9.3047 4.3633,-18.492 7.0039,-27.336 l 9.875,-33.078 h 18.605 z m 62.082,-123.8 h -283.21 v -138.2 h 180.05 v 95.855 c 0,4.7578 3.8555,8.6172 8.6172,8.6172 h 94.547 z"
       id="path252" />
  </g>
</svg>
